<svg width="17" height="16" viewBox="0 0 17 16" fill="none" xmlns="http://www.w3.org/2000/svg">
<path d="M13.1256 7.36976V5.45083L9.42365 6.87851C9.09535 7.00465 8.74006 7.03152 8.50001 7.03152C8.25985 7.03152 7.90505 7.00501 7.57675 6.87815L3.87476 5.45081V7.36974C3.87476 7.36974 5.05805 9.09098 8.50023 9.09098C11.9422 9.09098 13.1257 7.36974 13.1257 7.36974L13.1256 7.36976Z" fill="#255AA2"/>
<path d="M16.7148 3.0111L9.19125 0.110218C8.81091 -0.0367394 8.18893 -0.0367394 7.80859 0.110218L0.284994 3.0111C-0.0949979 3.1577 -0.0949979 3.39751 0.284994 3.54409L7.80859 6.4451C8.18893 6.59169 8.81091 6.59169 9.19125 6.4451L14.5509 4.37826V6.12783C14.3274 6.23835 14.0813 6.47708 14.0668 7.00086C14.0399 7.96878 14.1475 8.56062 13.6364 9.01746C13.6364 9.01746 13.838 9.26005 14.275 9.20582L14.5508 8.29138C14.5508 8.29138 14.6507 8.59668 14.6851 9.21369C14.6851 9.21369 15.3573 9.23318 15.5188 8.99095C15.5188 8.99095 15.9736 6.81745 15.2765 6.19453V4.09863L16.7148 3.54432C17.0951 3.39749 17.0951 3.15767 16.7148 3.01109L16.7148 3.0111Z" fill="#255AA2"/>
<path d="M9.61684 13.4691C9.61684 13.4691 10.5132 12.1324 9.80956 10.2564H7.38501C7.38501 10.2564 8.13796 11.5653 7.38501 13.4691H9.61684Z" fill="#255AA2"/>
<path d="M8.5839 13.8791H7.38477L7.98435 15.1976L8.83256 14.5381L10.2807 15.1976L9.6971 13.8791H8.5839Z" fill="#255AA2"/>
<path d="M15.4098 9.84612C15.4098 9.84612 12.5102 10.1203 10.3108 10.2332C10.6327 11.1802 10.5977 11.9998 10.4623 12.6079C13.2004 12.7637 15.3658 13.1314 16.1511 13.2783C16.6437 12.1701 16.4985 10.1462 15.4099 9.84624L15.4098 9.84612Z" fill="#255AA2"/>
<path d="M6.82195 10.2394C4.60803 10.1314 1.59063 9.84618 1.59063 9.84618C0.0288272 10.2762 0.407703 14.2563 1.8268 13.9873C2.7302 13.8162 5.18264 13.6239 6.84956 13.5056L6.93454 13.2906C6.96964 13.2028 6.99894 13.117 7.02702 13.0321C5.34755 13.0756 3.59278 13.2353 1.90107 13.5871C1.81149 13.6055 1.7201 13.5726 1.66272 13.5014C1.65074 13.4865 0.467088 11.9738 1.58379 10.3575C1.65957 10.2477 1.80943 10.2201 1.91959 10.2952C1.95785 10.3211 2.85169 10.9547 2.48478 12.6147C2.45609 12.745 2.32789 12.8278 2.19619 12.7991C2.06545 12.7701 1.98302 12.6408 2.01207 12.5102C2.20406 11.6436 1.99791 11.1413 1.82541 10.8923C1.31226 11.8787 1.76307 12.7697 1.95965 13.0818C3.67981 12.7364 5.45773 12.5838 7.15595 12.5463C7.40532 11.3227 6.98491 10.5339 6.96287 10.4953L6.82195 10.2394Z" fill="#255AA2"/>
<path d="M10.1487 13.5057C11.8153 13.6232 14.2696 13.8163 15.1733 13.9873C15.4488 14.039 15.6844 13.9303 15.8753 13.7192C14.969 13.5559 12.8946 13.2244 10.3269 13.0842C10.2653 13.2585 10.2026 13.3984 10.1487 13.5057L10.1487 13.5057Z" fill="#255AA2"/>
</svg>
