<svg width="14" height="19" viewBox="0 0 14 19" fill="none" xmlns="http://www.w3.org/2000/svg">
<path d="M6.78579 7.46428C6.18553 7.46626 5.60289 7.66708 5.12895 8.03541C4.65502 8.40373 4.31657 8.91881 4.1665 9.5H9.40507C9.25501 8.91883 8.91658 8.40375 8.44263 8.03541C7.96868 7.66706 7.38603 7.46626 6.78579 7.46428Z" fill="#255AA2"/>
<path d="M11.5357 0H2.03571C1.49582 0 0.977993 0.214465 0.59622 0.59622C0.214447 0.977993 0 1.49582 0 2.03571V16.9643C0 17.5042 0.214465 18.022 0.59622 18.4038C0.977993 18.7856 1.49582 19 2.03571 19H11.5357C12.0756 19 12.5934 18.7855 12.9752 18.4038C13.357 18.022 13.5714 17.5042 13.5714 16.9643V2.03571C13.5714 1.49582 13.357 0.977993 12.9752 0.59622C12.5934 0.214447 12.0756 0 11.5357 0ZM10.1786 16.2857H3.39286C3.15042 16.2857 2.92642 16.1564 2.80518 15.9464C2.68395 15.7365 2.68395 15.4778 2.80518 15.2679C2.9264 15.0579 3.1504 14.9286 3.39286 14.9286H10.1786C10.421 14.9286 10.645 15.0579 10.7663 15.2679C10.8875 15.4778 10.8875 15.7365 10.7663 15.9464C10.645 16.1564 10.421 16.2857 10.1786 16.2857ZM2.71429 12.8929C2.71429 12.7129 2.78575 12.5403 2.91304 12.413C3.04028 12.2857 3.21288 12.2143 3.39286 12.2143H4.75C4.99244 12.2143 5.21644 12.3436 5.33768 12.5536C5.4589 12.7635 5.4589 13.0222 5.33768 13.2321C5.21646 13.4421 4.99246 13.5714 4.75 13.5714H3.39286C3.21289 13.5714 3.04029 13.5 2.91304 13.3727C2.78574 13.2454 2.71429 13.0728 2.71429 12.8929ZM10.1786 13.5714H7.46429C7.22185 13.5714 6.99785 13.4421 6.87661 13.2321C6.75538 13.0222 6.75538 12.7635 6.87661 12.5536C6.99783 12.3436 7.22183 12.2143 7.46429 12.2143H10.1786C10.421 12.2143 10.645 12.3436 10.7663 12.5536C10.8875 12.7635 10.8875 13.0222 10.7663 13.2321C10.645 13.4421 10.421 13.5714 10.1786 13.5714ZM10.1786 10.8571H3.39286C3.21289 10.8571 3.04029 10.7857 2.91304 10.6584C2.78574 10.5312 2.71429 10.3585 2.71429 10.1786C2.71464 9.42881 2.92202 8.69377 3.31355 8.05437C3.70507 7.41503 4.26559 6.89613 4.93321 6.55502C4.59796 6.13975 4.41375 5.62297 4.41071 5.0893C4.41071 4.2408 4.86338 3.45677 5.59821 3.0326C6.33304 2.60828 7.23838 2.60828 7.97321 3.0326C8.70804 3.45684 9.16071 4.24087 9.16071 5.0893C9.15767 5.62297 8.97346 6.13975 8.63821 6.55502C9.30584 6.89615 9.86636 7.41503 10.2579 8.05437C10.6494 8.69378 10.8568 9.42883 10.8571 10.1786C10.8571 10.3585 10.7857 10.5311 10.6584 10.6584C10.5312 10.7857 10.3585 10.8571 10.1786 10.8571Z" fill="#255AA2"/>
<path d="M7.80354 5.08928C7.80354 5.65143 7.34783 6.10714 6.78568 6.10714C6.22353 6.10714 5.76782 5.65143 5.76782 5.08928C5.76782 4.52714 6.22353 4.07143 6.78568 4.07143C7.34783 4.07143 7.80354 4.52714 7.80354 5.08928Z" fill="#255AA2"/>
</svg>
