<svg width="136" height="136" viewBox="0 0 136 136" fill="none" xmlns="http://www.w3.org/2000/svg">
<circle cx="68" cy="68" r="68" fill="#E6BE5C" fill-opacity="0.07"/>
<path d="M89.4485 34.2677H47.1699C46.5505 34.2677 46.0472 34.7703 46.0472 35.3903V100.61C46.0472 101.23 46.5505 101.732 47.1699 101.732H89.4485C90.0679 101.732 90.5712 101.23 90.5712 100.61V35.3903C90.5712 34.7703 90.0679 34.2677 89.4485 34.2677ZM68.3092 98.1101C66.3075 98.1101 64.6857 96.4882 64.6857 94.4866C64.6857 92.4856 66.3075 90.863 68.3092 90.863C70.3109 90.863 71.9327 92.4856 71.9327 94.4866C71.9327 96.4882 70.3109 98.1101 68.3092 98.1101ZM51.7345 40.3294H84.8846V85.0024H51.7345V40.3294Z" fill="#E6BE5C"/>
<path d="M68 52.4724C62.3818 52.4724 57.8268 57.0275 57.8268 62.6457C57.8268 68.2638 62.3818 72.8189 68 72.8189C73.6182 72.8189 78.1732 68.2638 78.1732 62.6457C78.1732 57.0275 73.6182 52.4724 68 52.4724ZM73.686 60.7017L67.2769 67.1109C67.1175 67.2703 66.9021 67.3593 66.6775 67.3593C66.4528 67.3593 66.2367 67.2703 66.0781 67.1109L63.1508 64.1835C62.8193 63.852 62.8193 63.3163 63.1508 62.9848C63.4822 62.6533 64.018 62.6533 64.3495 62.9848L66.6775 65.3128L72.4873 59.503C72.8187 59.1715 73.3545 59.1715 73.686 59.503C74.0175 59.8345 74.0175 60.3703 73.686 60.7017Z" fill="#E6BE5C"/>
</svg>
