<svg width="30" height="30" viewBox="0 0 30 30" fill="none" xmlns="http://www.w3.org/2000/svg">
<path d="M13.3548 0.0906899C9.52571 0.53601 5.97026 2.43491 3.52445 5.35713C-0.28121 9.89696 -1.07046 16.1557 1.47699 21.4771C2.98508 24.6104 5.3921 27.017 8.5176 28.517C13.8471 31.0721 20.1064 30.283 24.6471 26.4777C28.0151 23.6647 30 19.3987 30 15.0068C30 10.6155 28.0151 6.34896 24.6471 3.53588C21.5212 0.910401 17.3247 -0.363176 13.3551 0.0901006L13.3548 0.0906899ZM19.5205 11.0612L22.9901 15.0072H25.5455V19.3047H21.3568L18.7154 16.2965C17.2619 14.6399 16.0662 13.2883 16.0505 13.2883C16.0348 13.2883 14.8392 14.6402 13.3857 16.2965L10.7443 19.3047H4.52393V15.0072H9.11906L11.276 12.5223C12.4639 11.1627 14.0032 9.38898 14.7066 8.58411C15.402 7.77153 15.9883 7.11505 16.0195 7.11505C16.0429 7.11505 17.6213 8.88878 19.5204 11.061L19.5205 11.0612Z" fill="white"/>
</svg>
