<svg width="9" height="12" viewBox="0 0 9 12" fill="none" xmlns="http://www.w3.org/2000/svg">
<path d="M0.617796 11.6152C0.734019 11.6929 0.867249 11.7414 1.00621 11.7567C1.14517 11.772 1.28576 11.7536 1.41609 11.703L2.40199 11.0285C2.4688 10.9821 2.54818 10.9573 2.6295 10.9573C2.71082 10.9573 2.7902 10.9821 2.85702 11.0285L4.21013 11.8627L4.27399 11.8946C4.48137 11.9785 4.71323 11.9785 4.92061 11.8946L6.36153 11.0165C6.42835 10.9701 6.50773 10.9453 6.58905 10.9453C6.67037 10.9453 6.74975 10.9701 6.81656 11.0165L7.72263 11.6631L7.80246 11.703C7.93398 11.7554 8.07626 11.775 8.21706 11.7603C8.35786 11.7455 8.49296 11.6968 8.61076 11.6182C8.72855 11.5397 8.82551 11.4337 8.8933 11.3095C8.96108 11.1852 8.99766 11.0463 8.9999 10.9047L8.9999 1.28925C9.00201 1.1207 8.97064 0.953406 8.9076 0.797077C8.84456 0.640748 8.7511 0.498492 8.63266 0.37856C8.51421 0.258629 8.37313 0.16341 8.2176 0.0984251C8.06207 0.0334406 7.89518 -1.54212e-05 7.72662 -2.15437e-06L1.49193 -1.60931e-06C1.32337 -1.48467e-05 1.15648 0.0334412 1.00095 0.0984257C0.845418 0.16341 0.704337 0.25863 0.585891 0.378561C0.467445 0.498493 0.373991 0.640748 0.310949 0.797078C0.247908 0.953407 0.216534 1.1207 0.218648 1.28925L0.218648 10.8927C0.219818 11.0369 0.256935 11.1784 0.326633 11.3046C0.396332 11.4307 0.496409 11.5375 0.617796 11.6152V11.6152ZM3.01268 4.67402L6.20586 4.67402C6.31173 4.67402 6.41325 4.71607 6.4881 4.79093C6.56296 4.86578 6.60501 4.96731 6.60501 5.07317C6.60501 5.17903 6.56296 5.28055 6.4881 5.35541C6.41325 5.43026 6.31173 5.47231 6.20586 5.47231L3.01268 5.47231C2.90682 5.47231 2.8053 5.43026 2.73044 5.35541C2.65559 5.28055 2.61353 5.17903 2.61353 5.07317C2.61353 4.96731 2.65559 4.86578 2.73044 4.79093C2.8053 4.71607 2.90682 4.67402 3.01268 4.67402ZM2.61353 3.0455C2.61353 2.93964 2.65559 2.83811 2.73044 2.76326C2.8053 2.6884 2.90682 2.64635 3.01268 2.64635L6.20586 2.64635C6.31172 2.64635 6.41325 2.6884 6.4881 2.76326C6.56296 2.83811 6.60501 2.93964 6.60501 3.0455C6.60501 3.15136 6.56296 3.25288 6.4881 3.32774C6.41325 3.40259 6.31173 3.44464 6.20586 3.44464L3.01268 3.44464C2.96027 3.44464 2.90836 3.43432 2.85994 3.41426C2.81151 3.3942 2.76751 3.3648 2.73044 3.32774C2.69338 3.29067 2.66398 3.24667 2.64392 3.19824C2.62386 3.14982 2.61353 3.09791 2.61353 3.0455V3.0455ZM3.01268 6.70169L6.20586 6.70169C6.31173 6.70169 6.41325 6.74374 6.4881 6.8186C6.56296 6.89345 6.60501 6.99498 6.60501 7.10084C6.60501 7.2067 6.56296 7.30822 6.4881 7.38308C6.41325 7.45793 6.31173 7.49999 6.20586 7.49999L3.01268 7.49999C2.90682 7.49999 2.8053 7.45793 2.73044 7.38308C2.65559 7.30822 2.61353 7.2067 2.61353 7.10084C2.61353 6.99498 2.65559 6.89345 2.73044 6.8186C2.8053 6.74374 2.90682 6.70169 3.01268 6.70169Z" fill="#DDDDDD"/>
</svg>
