<svg width="31" height="30" viewBox="0 0 31 30" fill="none" xmlns="http://www.w3.org/2000/svg">
<path d="M15.0577 1.5935e-07C11.0643 1.5935e-07 7.23446 1.58036 4.41026 4.39336C1.58605 7.20636 0 11.0217 0 15C0 18.9783 1.58644 22.7933 4.41026 25.6066C7.23407 28.42 11.0641 30 15.0577 30C19.0513 30 22.8809 28.4196 25.7051 25.6066C28.5293 22.7936 30.1154 18.9783 30.1154 15C30.1158 12.3669 29.4204 9.77984 28.099 7.49948C26.7774 5.21906 24.8764 3.3254 22.5871 2.00867C20.2979 0.692326 17.7009 -0.000383583 15.0577 1.5935e-07ZM23.2551 10.9504L13.1255 23.6232L6.96205 17.4833C6.68002 17.2418 6.51191 16.894 6.49837 16.5237C6.48483 16.1535 6.62713 15.7943 6.89068 15.5329C7.15445 15.2717 7.51556 15.1318 7.88702 15.147C8.2587 15.1624 8.60716 15.3316 8.84814 15.6136L12.9007 19.6384L21.1691 9.29603C21.3841 9.0048 21.7087 8.81335 22.0683 8.7656C22.428 8.71806 22.7917 8.81828 23.0755 9.04334C23.3592 9.26862 23.5389 9.59906 23.5729 9.95879C23.6069 10.3188 23.4923 10.6768 23.2556 10.9507L23.2551 10.9504Z" fill="white"/>
</svg>
