<svg width="14" height="14" viewBox="0 0 14 14" fill="none" xmlns="http://www.w3.org/2000/svg">
<path d="M0.595132 7.76221H1.92559V12.9624C1.92621 13.2365 2.02927 13.4992 2.21218 13.6928C2.39509 13.8863 2.6429 13.995 2.90126 13.995H4.98564C5.02959 13.995 5.07175 13.9765 5.10283 13.9436C5.1339 13.9106 5.15137 13.8659 5.15137 13.8192V9.04493C5.15137 8.9983 5.16882 8.95358 5.1999 8.92061C5.23098 8.88763 5.27314 8.86911 5.31709 8.86911H8.68291C8.70467 8.86911 8.72622 8.87366 8.74633 8.88249C8.76644 8.89133 8.78471 8.90428 8.8001 8.92061C8.81549 8.93693 8.82769 8.95632 8.83602 8.97765C8.84435 8.99898 8.84863 9.02184 8.84863 9.04493V13.8242C8.84863 13.8708 8.86609 13.9155 8.89717 13.9485C8.92825 13.9815 8.97041 14 9.01436 14H11.0987C11.3571 14 11.6049 13.8913 11.7878 13.6977C11.9707 13.5041 12.0738 13.2415 12.0744 12.9674V7.76716H13.4049C13.5226 7.76665 13.6375 7.72929 13.7352 7.65976C13.833 7.59022 13.9092 7.49161 13.9543 7.37629C13.9995 7.26097 14.0115 7.13408 13.9889 7.01155C13.9663 6.88901 13.9101 6.77628 13.8273 6.68749L7.90331 0.395218C7.66323 0.14208 7.33849 0 7 0C6.66151 0 6.33677 0.14208 6.09669 0.395218L0.172654 6.68254C0.089901 6.77132 0.0337035 6.88405 0.011112 7.00659C-0.0114795 7.12913 0.000540486 7.25602 0.0456649 7.37134C0.0907894 7.48665 0.16701 7.58527 0.264761 7.6548C0.362512 7.72434 0.477441 7.7617 0.595132 7.76221Z" fill="#255AA2"/>
</svg>
