<svg width="18" height="14" viewBox="0 0 18 14" fill="none" xmlns="http://www.w3.org/2000/svg">
<path d="M9.93516 3.72681H1.49063C1.09475 3.72802 0.715503 3.88618 0.436067 4.1666C0.156631 4.44703 -0.000187846 4.82682 1.68867e-07 5.22271V9.94067C9.17343e-05 10.1362 0.0387488 10.3297 0.113757 10.5102C0.188765 10.6907 0.298651 10.8547 0.437119 10.9926C0.575587 11.1306 0.739917 11.2399 0.920696 11.3143C1.10147 11.3887 1.29515 11.4266 1.49063 11.426H2.67188V13.1012C2.67188 13.778 3.02625 13.9035 3.45938 13.3825L5.08711 11.426H9.93516C10.1306 11.4266 10.3243 11.3887 10.5051 11.3143C10.6859 11.2399 10.8502 11.1306 10.9887 10.9926C11.1271 10.8547 11.237 10.6907 11.312 10.5102C11.387 10.3297 11.4257 10.1362 11.4258 9.94067V5.22271C11.426 4.82682 11.2691 4.44703 10.9897 4.1666C10.7103 3.88618 10.331 3.72802 9.93516 3.72681Z" fill="#DDDDDD"/>
<path d="M15.6939 0H7.59393C6.3262 0 5.27362 1.02973 5.27362 2.29746V2.60156H9.9371C11.3785 2.60156 12.551 3.75223 12.551 5.19434V8.96484H13.9157L15.2868 10.6C15.7217 11.1185 16.0757 10.9902 16.0733 10.3134L16.0666 8.93777C17.1589 8.7525 18.0002 7.76988 18.0002 6.62871V2.29746C18.0002 1.02973 16.9617 0 15.6939 0Z" fill="#DDDDDD"/>
</svg>
