<svg width="54" height="54" viewBox="0 0 54 54" fill="none" xmlns="http://www.w3.org/2000/svg">
<path d="M37.7991 21.5987C33.5026 21.5987 29.3824 23.3055 26.3449 26.3434C23.3074 29.3813 21.6002 33.5016 21.6002 37.7976C21.6002 42.0941 23.3069 46.2144 26.3449 49.2519C29.3828 52.2898 33.5031 53.9966 37.7991 53.9966C42.0956 53.9966 46.2159 52.2898 49.2534 49.2519C52.2913 46.214 53.998 42.0937 53.998 37.7976C53.993 33.5029 52.2851 29.3851 49.2479 26.3488C46.2112 23.3116 42.0935 21.6032 37.799 21.5986L37.7991 21.5987ZM38.2474 36.4622C43.1159 38.0952 44.1383 40.546 44.1383 42.3146C44.1383 44.9597 42.096 47.0371 39.2082 47.5394V49.7717L36.3903 49.7709V47.5051C33.5696 46.9234 31.4602 44.6894 31.4602 42.023H34.2776C34.2776 43.5502 35.909 44.84 37.8396 44.84C39.5693 44.84 41.3207 43.9724 41.3207 42.3139C41.3207 40.644 38.5448 39.5329 37.3511 39.1324C32.4826 37.4994 31.4602 35.0486 31.4602 33.2799C31.4602 30.6349 33.5025 28.5574 36.3903 28.0552V25.8241H39.2077V28.0891C42.0285 28.6709 44.1379 30.9053 44.1379 33.5717H41.3204C41.3204 32.0445 39.689 30.7542 37.7585 30.7542C36.0287 30.7542 34.2773 31.6218 34.2773 33.2804C34.2773 34.9502 37.0533 36.0618 38.2474 36.4619V36.4622Z" fill="white"/>
<path d="M15.9681 19.8889C24.7862 19.8889 31.9351 16.1737 31.9351 11.5911L31.9347 8.29782C31.9347 3.71516 24.7864 0 15.9688 0C7.15069 0 0.00183105 3.71516 0.00183105 8.29782V11.5915C0.00183105 16.1738 7.15048 19.8889 15.9688 19.8889H15.9681Z" fill="white"/>
<path d="M15.9663 28.4141C18.0417 28.4216 20.1116 28.2044 22.1402 27.7662C24.4424 24.1867 27.8965 21.499 31.9318 20.1464V17.0327C28.8298 20.2247 22.9802 22.2884 15.9659 22.2884C8.95833 22.2884 3.10811 20.2247 0 17.0327V20.1167C0 24.7002 7.14565 28.4141 15.9659 28.4141L15.9663 28.4141Z" fill="white"/>
<path d="M15.9663 36.94C17.0566 36.9409 18.1464 36.8827 19.2303 36.7659C19.3475 34.6018 19.8451 32.4753 20.7001 30.484C19.132 30.7067 17.55 30.8168 15.9663 30.8142C8.95876 30.8142 3.10853 28.7501 0.000427246 25.5581V28.6421C0.000427246 33.2261 7.14608 36.9399 15.9663 36.9399V36.94Z" fill="white"/>
<path d="M15.9663 45.4725C17.5495 45.4738 19.1307 45.3495 20.6943 45.1004C19.8882 43.2222 19.4019 41.223 19.2542 39.1843C18.1924 39.2864 17.0943 39.3404 15.9663 39.3404C8.95876 39.3404 3.10853 37.2826 0.000427246 34.0847V37.1746C0.000427246 41.7586 7.14607 45.4724 15.9663 45.4724V45.4725Z" fill="white"/>
<path d="M15.9663 53.9976C19.3965 54.0428 22.8023 53.4171 25.9922 52.1558C24.347 50.8027 22.9466 49.1772 21.8522 47.35C19.9103 47.7045 17.9399 47.879 15.9662 47.8719C8.95864 47.8719 3.10841 45.8078 0.000305176 42.6162V45.7002C0.000305176 50.2837 7.14595 53.9976 15.9662 53.9976L15.9663 53.9976Z" fill="white"/>
</svg>
