<svg width="13" height="14" viewBox="0 0 13 14" fill="none" xmlns="http://www.w3.org/2000/svg">
<path d="M10.0749 3.575C10.0749 1.60875 8.46618 0 6.49993 0C4.53368 0 2.92493 1.60875 2.92493 3.575C2.92493 5.54125 4.53368 7.15 6.49993 7.15C8.46618 7.15 10.0749 5.54125 10.0749 3.575Z" fill="#DDDDDD"/>
<path d="M7.91375 7.89734C7.45875 8.04359 6.9875 8.12484 6.5 8.12484C6.0125 8.12484 5.54125 8.04359 5.08625 7.89734C3.65625 7.42609 2.06375 7.81609 1.12125 8.96984C0.4225 9.83109 0 10.9361 0 12.1223C0 12.7886 0.53625 13.3248 1.2025 13.3248H11.7975C12.4637 13.3248 13 12.7886 13 12.1223C13 10.9361 12.5775 9.83109 11.8787 8.96984C10.92 7.81609 9.34375 7.42609 7.91375 7.89734Z" fill="#DDDDDD"/>
</svg>
