<svg width="14" height="11" viewBox="0 0 14 11" fill="none" xmlns="http://www.w3.org/2000/svg">
<path d="M7.52632 4.63158V6.36842C7.52632 6.82906 7.7093 7.27083 8.03502 7.59655C8.36075 7.92228 8.80252 8.10526 9.26316 8.10526H13.3158C13.5135 8.10652 13.7098 8.07119 13.8947 8.00105V9.26316C13.8947 9.7238 13.7117 10.1656 13.386 10.4913C13.0603 10.817 12.6185 11 12.1579 11H1.73684C1.2762 11 0.83443 10.817 0.508709 10.4913C0.182988 10.1656 0 9.7238 0 9.26316V1.73684C0 1.2762 0.182988 0.83443 0.508709 0.508709C0.83443 0.182988 1.2762 0 1.73684 0H12.1579C12.6185 0 13.0603 0.182988 13.386 0.508709C13.7117 0.83443 13.8947 1.2762 13.8947 1.73684V2.99895C13.7098 2.92881 13.5135 2.89348 13.3158 2.89474H9.26316C8.80252 2.89474 8.36075 3.07772 8.03502 3.40345C7.7093 3.72917 7.52632 4.17094 7.52632 4.63158Z" fill="#DDDDDD"/>
<path d="M13.3158 4.05249H9.26315C9.10961 4.05249 8.96235 4.11349 8.85377 4.22206C8.7452 4.33063 8.6842 4.47789 8.6842 4.63144V6.36828C8.6842 6.52183 8.7452 6.66908 8.85377 6.77766C8.96235 6.88623 9.10961 6.94723 9.26315 6.94723H13.3158C13.4693 6.94723 13.6166 6.88623 13.7252 6.77766C13.8337 6.66908 13.8947 6.52183 13.8947 6.36828V4.63144C13.8947 4.47789 13.8337 4.33063 13.7252 4.22206C13.6166 4.11349 13.4693 4.05249 13.3158 4.05249ZM10.7105 6.36828C10.5388 6.36828 10.3709 6.31735 10.2281 6.22192C10.0852 6.1265 9.97393 5.99087 9.9082 5.83219C9.84248 5.67351 9.82528 5.4989 9.85879 5.33044C9.89229 5.16198 9.975 5.00724 10.0965 4.88579C10.2179 4.76434 10.3726 4.68163 10.5411 4.64812C10.7096 4.61462 10.8842 4.63181 11.0428 4.69754C11.2015 4.76327 11.3372 4.87458 11.4326 5.01739C11.528 5.1602 11.5789 5.3281 11.5789 5.49986C11.5789 5.73018 11.4874 5.95106 11.3246 6.11392C11.1617 6.27679 10.9408 6.36828 10.7105 6.36828Z" fill="#DDDDDD"/>
</svg>
