a<svg width="9" height="12" viewBox="0 0 9 12" fill="none" xmlns="http://www.w3.org/2000/svg">
<path d="M4.49984 11.8279C2.46842 11.8279 0 11.0822 0 10.1694C0 9.30794 2.36571 8.71649 2.63572 8.65221C2.86715 8.60079 3.11145 8.54936 3.35572 8.52364C4.51286 8.43364 5.34855 8.48507 5.64428 8.52364C5.97857 8.57507 6.29998 8.65221 6.33856 8.65221L6.41571 8.67793C7.59856 8.96079 9 9.46223 9 10.1694C9 11.0951 6.53144 11.8279 4.50016 11.8279H4.49984ZM4.58984 8.85802C4.25555 8.85802 3.85697 8.87087 3.39411 8.90944C3.17554 8.93516 2.94413 8.97373 2.72554 9.03802C1.47839 9.33371 0.385551 9.86087 0.385551 10.1694C0.385551 10.6452 2.31412 11.4423 4.49982 11.4423C6.68553 11.4423 8.6141 10.6451 8.6141 10.1694C8.6141 9.83516 7.67551 9.3723 6.32553 9.03802L6.24839 9.02516C6.20982 9.0123 5.90126 8.94802 5.59269 8.89659C5.45126 8.88373 5.10412 8.85802 4.58984 8.85802Z" fill="#255AA2"/>
<path d="M4.49979 0.192383C1.82551 0.192383 0.141302 3.09809 1.47844 5.42515L4.49979 10.645L7.52113 5.41222C8.85827 3.08507 7.174 0.192383 4.49979 0.192383ZM4.49979 4.75658C3.66406 4.75658 2.98265 4.07514 2.98265 3.23944C2.98265 2.40375 3.66409 1.7223 4.49979 1.7223C5.33548 1.7223 6.01692 2.40375 6.01692 3.23944C6.01692 4.07514 5.33548 4.75658 4.49979 4.75658Z" fill="#255AA2"/>
<path d="M4.49982 11.0314L1.31126 5.51562C0.642693 4.35848 0.655565 2.98276 1.32412 1.82571C1.97982 0.681411 3.17554 0 4.49975 0C5.82396 0 7.01974 0.681441 7.68831 1.83855C8.35688 2.98285 8.35688 4.35854 7.70117 5.51553L4.49982 11.0314ZM4.49982 0.385713C3.31697 0.385713 2.24985 1.00285 1.65839 2.03142C1.05412 3.05999 1.05412 4.29427 1.64553 5.33577L4.49981 10.26L7.35409 5.30991C7.94551 4.28134 7.94551 3.04706 7.34123 2.01849C6.7498 0.989923 5.68265 0.385654 4.49979 0.385654L4.49982 0.385713ZM4.49982 4.94991C3.56124 4.94991 2.78981 4.17848 2.78981 3.2399C2.78981 2.30132 3.56124 1.52989 4.49982 1.52989C5.43841 1.52989 6.20983 2.30132 6.20983 3.2399C6.20983 4.17848 5.43841 4.94991 4.49982 4.94991ZM4.49982 1.91563C3.76695 1.91563 3.17556 2.50706 3.17556 3.2399C3.17556 3.97274 3.76698 4.56417 4.49982 4.56417C5.23266 4.56417 5.82409 3.97274 5.82409 3.2399C5.82409 2.50706 5.23266 1.91563 4.49982 1.91563Z" fill="#255AA2"/>
</svg>
