<svg width="15" height="14" viewBox="0 0 15 14" fill="none" xmlns="http://www.w3.org/2000/svg">
<path d="M11.9549 1.35338H10.4662V0.616541C10.4662 0.285714 10.1955 0 9.84962 0C9.50376 0 9.24812 0.285714 9.24812 0.616541V1.35338H5.03759V0.616541C5.03759 0.285714 4.76692 0 4.42105 0C4.07519 0 3.80451 0.270677 3.80451 0.616541V1.35338H2.33083C1.03759 1.35338 0 2.40602 0 3.68421V11.6692C0 12.9624 1.05263 14 2.33083 14H11.9549C13.2481 14 14.2857 12.9474 14.2857 11.6692V3.68421C14.2857 2.40602 13.2331 1.35338 11.9549 1.35338ZM2.33083 2.57143H3.81955V3.30827C3.81955 3.6391 4.09023 3.92481 4.43609 3.92481C4.78195 3.92481 5.05263 3.65414 5.05263 3.30827V2.57143H9.26316V3.30827C9.26316 3.6391 9.53383 3.92481 9.8797 3.92481C10.2256 3.92481 10.4962 3.65414 10.4962 3.30827V2.57143H11.9549C12.5714 2.57143 13.0677 3.06767 13.0677 3.68421V5.48872H1.21805V3.68421C1.21805 3.06767 1.71429 2.57143 2.33083 2.57143Z" fill="#888888"/>
</svg>
