<svg width="14" height="11" viewBox="0 0 14 11" fill="none" xmlns="http://www.w3.org/2000/svg">
<path d="M3.41065 5.57146C3.22491 5.40006 2.93922 5.38571 2.76781 5.57146L2.26775 6.07152V5.50003C2.26775 2.99999 4.29636 0.971385 6.7964 0.971385C8.1107 0.971385 9.36786 1.54277 10.225 2.54289C10.3964 2.74289 10.7107 2.77149 10.9107 2.59999C11.1107 2.42859 11.1393 2.11429 10.9678 1.91429C9.92497 0.699934 8.39635 0 6.79633 0C3.76771 0 1.29624 2.47144 1.29624 5.50008V6.08583L0.782152 5.57144C0.596405 5.40004 0.310717 5.40004 0.139311 5.57144C-0.0464369 5.75719 -0.0464369 6.04287 0.139311 6.21428L1.45362 7.52859C1.53932 7.61429 1.65361 7.65714 1.78217 7.65714C1.91072 7.65714 2.02502 7.61429 2.11072 7.52859L3.42503 6.21428C3.59653 6.04288 3.59653 5.75708 3.41077 5.57144L3.41065 5.57146Z" fill="#255AA2"/>
<path d="M13.4394 4.77196L12.1251 3.45765C11.9393 3.28625 11.6536 3.28625 11.4822 3.45765L10.1679 4.77196C9.98217 4.95771 9.98217 5.24339 10.1679 5.4148C10.3537 5.58621 10.6394 5.5862 10.8108 5.4148L11.3108 4.91474L11.3107 5.50049C11.3107 8.00053 9.28212 10.0291 6.78208 10.0291C5.46777 10.0291 4.21061 9.45774 3.35346 8.45763C3.18205 8.25763 2.86776 8.22903 2.66776 8.40053C2.46776 8.57193 2.43916 8.88622 2.61066 9.08623C3.6535 10.3006 5.18212 11.0005 6.78215 11.0005C9.81077 11.0005 12.2822 8.52907 12.2822 5.50043V4.91468L12.7823 5.41474C12.868 5.50044 12.9823 5.54329 13.1108 5.54329C13.2394 5.54329 13.3394 5.50044 13.4394 5.41474C13.6107 5.24344 13.6107 4.95764 13.4393 4.772L13.4394 4.77196Z" fill="#255AA2"/>
<path d="M6.78215 2.1856C5.86785 2.1856 5.12495 2.92849 5.12495 3.84279V4.41418C4.92495 4.47128 4.72495 4.55708 4.5392 4.64278C4.4249 4.68563 4.35345 4.79993 4.35345 4.91423V7.69999C4.35345 7.87139 4.49635 8.00005 4.65351 8.00005H8.86786C9.03926 8.00005 9.16792 7.85715 9.16792 7.69999V4.89995C9.16792 4.78565 9.09647 4.67135 8.98217 4.62849C8.79642 4.54279 8.59642 4.47134 8.39642 4.39989V3.84274C8.43937 2.92844 7.69646 2.18555 6.78219 2.18555L6.78215 2.1856ZM7.22498 6.8571C7.23923 6.89995 7.22498 6.9428 7.19638 6.9714C7.16778 7 7.13928 7.01425 7.09633 7.01425H6.45349C6.41064 7.01425 6.38204 7 6.35344 6.9714C6.32484 6.9428 6.32484 6.89995 6.32484 6.8571L6.52484 6.08571C6.35344 6.00001 6.23915 5.82861 6.23915 5.61427C6.23915 5.32858 6.46775 5.08572 6.7677 5.08572C7.05339 5.08572 7.29626 5.31432 7.29626 5.61427C7.29626 5.81427 7.18196 6.00002 7.01056 6.08571L7.22498 6.8571ZM7.69642 4.22849C7.09641 4.12844 6.48206 4.12844 5.88208 4.22849V3.84274C5.88208 3.34268 6.29632 2.92844 6.79638 2.92844C7.29644 2.92844 7.71068 3.34268 7.71068 3.84274V4.22849H7.69642Z" fill="#255AA2"/>
</svg>
