<svg width="11" height="9" viewBox="0 0 11 9" fill="none" xmlns="http://www.w3.org/2000/svg">
<path d="M2.34425 4.4988C2.34425 4.67102 2.3556 4.84325 2.37828 5.01443C2.37107 4.95978 2.36385 4.90512 2.35663 4.84943C2.402 5.18975 2.49276 5.52284 2.62476 5.83943C2.60413 5.78993 2.58351 5.74043 2.56289 5.69196C2.69385 6.00133 2.86401 6.29215 3.0682 6.55822C3.03623 6.51697 3.00323 6.47469 2.97126 6.43344C3.17545 6.69744 3.41162 6.93359 3.67562 7.13881C3.63437 7.10685 3.59208 7.07385 3.55083 7.04188C3.81689 7.2471 4.10771 7.41725 4.41709 7.54823C4.36759 7.5276 4.31809 7.50698 4.26963 7.48636C4.58622 7.61939 4.91931 7.7091 5.25963 7.7555C5.20497 7.74828 5.15031 7.74107 5.09463 7.73385C5.437 7.77819 5.7835 7.77819 6.12485 7.73385C6.07019 7.74107 6.01554 7.74829 5.95985 7.7555C6.30016 7.71013 6.63326 7.61938 6.94985 7.48737C6.90035 7.508 6.85085 7.52862 6.80238 7.54925C7.11175 7.41828 7.40257 7.24812 7.66864 7.04393C7.62739 7.0759 7.58511 7.1089 7.54386 7.14087C7.80786 6.93668 8.04401 6.70052 8.24821 6.43652C8.21624 6.47777 8.18324 6.52005 8.15128 6.5613C8.35546 6.29524 8.52563 6.00443 8.65659 5.69504C8.63596 5.74454 8.61534 5.79404 8.59472 5.84251C8.72775 5.52591 8.81746 5.19282 8.86285 4.85251C8.85563 4.90716 8.84841 4.96182 8.84119 5.01751C8.88554 4.67514 8.88554 4.32864 8.84119 3.98728C8.84841 4.04194 8.85563 4.0966 8.86285 4.15228C8.81747 3.81197 8.72672 3.47888 8.59472 3.16228C8.61534 3.21178 8.63597 3.26128 8.65659 3.30975C8.52562 3.00038 8.35546 2.70957 8.15128 2.44349C8.18324 2.48474 8.21624 2.52702 8.24821 2.56827C8.04403 2.30427 7.80786 2.06812 7.54386 1.86392C7.58511 1.89589 7.62739 1.92889 7.66864 1.96086C7.40259 1.75667 7.11177 1.5865 6.80238 1.45554C6.85188 1.47617 6.90138 1.49679 6.94985 1.51742C6.63326 1.38438 6.30016 1.29468 5.95985 1.24929C6.0145 1.2565 6.06916 1.26372 6.12485 1.27094C5.78144 1.22557 5.43289 1.2266 5.08948 1.27197C5.14413 1.26475 5.19879 1.25754 5.25448 1.25032C4.9152 1.29672 4.58313 1.38644 4.26757 1.51845C4.31707 1.49782 4.36657 1.4772 4.41504 1.45657C4.10669 1.58651 3.81691 1.75563 3.55189 1.95983C3.59314 1.92786 3.63542 1.89486 3.67667 1.8629C3.41371 2.06604 3.17754 2.30221 2.97336 2.56416C3.00532 2.52291 3.03833 2.48062 3.07029 2.43937C3.06101 2.45175 3.05173 2.46412 3.04245 2.47547C3.00326 2.54766 2.95067 2.60541 2.8826 2.64872C2.82279 2.70337 2.75267 2.7405 2.67223 2.75906C2.52373 2.80031 2.32677 2.78175 2.19579 2.69719C2.06379 2.61159 1.94725 2.48474 1.91116 2.32697C1.87713 2.1764 1.87506 1.97943 1.97303 1.85052C2.12256 1.65356 2.27726 1.46174 2.45359 1.28848C2.62684 1.11936 2.81659 0.967761 3.0115 0.826484C3.3714 0.564539 3.77876 0.367576 4.1995 0.225261C4.63365 0.078824 5.10081 0.00561333 5.55868 0.00044632C5.74741 -0.00161648 5.93613 0.00972748 6.12381 0.0344772C6.35068 0.0643835 6.5755 0.0984144 6.79619 0.159259C7.56137 0.367574 8.27604 0.789352 8.82974 1.35757C9.38352 1.92683 9.79293 2.64871 9.97959 3.42206C10.0776 3.82632 10.124 4.25221 10.1064 4.66884C10.0889 5.07824 10.0219 5.4928 9.89399 5.88261C9.64649 6.63543 9.20614 7.33152 8.61009 7.85639C8.01094 8.38234 7.27771 8.76802 6.48979 8.91549C5.67819 9.06708 4.82123 9.0217 4.04684 8.72263C3.67353 8.57826 3.31775 8.40191 2.99497 8.16369C2.67529 7.92754 2.38034 7.66765 2.13284 7.35724C1.8843 7.04478 1.66569 6.71684 1.50688 6.34869C1.34497 5.97228 1.21915 5.59278 1.16347 5.18646C1.13253 4.95752 1.10675 4.73065 1.10675 4.49965C1.10675 4.34084 1.17585 4.17378 1.28825 4.06239C1.3955 3.95514 1.57184 3.8747 1.72551 3.88089C1.88535 3.88811 2.05138 3.9407 2.16277 4.06239C2.27414 4.18202 2.34427 4.33052 2.34427 4.49861L2.34425 4.4988Z" fill="#255AA2"/>
<path d="M3.32295 6.11268C3.10432 5.99099 2.88673 5.86931 2.6681 5.74762C2.32056 5.55375 1.97201 5.35988 1.62447 5.16599C1.54403 5.12165 1.46462 5.07731 1.38419 5.03193C1.66675 4.95768 1.94828 4.88343 2.23084 4.81021C2.10915 5.02884 1.98747 5.24643 1.86578 5.46506C1.67191 5.8126 1.47804 6.16115 1.28415 6.50869C1.23981 6.58913 1.19547 6.66854 1.15009 6.74897C1.07584 6.88303 0.927349 6.99338 0.779867 7.0336C0.631367 7.07485 0.434404 7.05629 0.303422 6.97172C0.171422 6.88613 0.054885 6.75928 0.0187924 6.6015C-0.0183336 6.43753 -0.00183366 6.27459 0.0806664 6.12506C0.202354 5.90643 0.324037 5.68883 0.445722 5.4702C0.639593 5.12267 0.833463 4.77411 1.02735 4.42657C1.0717 4.34614 1.11604 4.26673 1.16142 4.1863C1.23257 4.05842 1.38727 3.93467 1.53164 3.90167C1.69561 3.86454 1.85855 3.88104 2.00808 3.96354C2.22671 4.08523 2.44431 4.20691 2.66294 4.3286C3.01047 4.52247 3.35903 4.71634 3.70657 4.91023C3.787 4.95457 3.86641 4.99891 3.94684 5.04429C4.08091 5.11854 4.19125 5.26703 4.23147 5.41451C4.27272 5.56301 4.25416 5.75997 4.1696 5.89096C4.08401 6.02296 3.95716 6.13949 3.79938 6.17559C3.63541 6.21271 3.47247 6.19621 3.32293 6.11268L3.32295 6.11268Z" fill="#255AA2"/>
<path d="M4.98935 6.22276V5.55657V4.60885C4.98935 4.57688 4.98832 4.54388 4.98935 4.51191C4.99244 4.34073 5.05948 4.17986 5.17807 4.05714C5.23479 3.99835 5.2946 3.9406 5.35235 3.88285C5.59058 3.64463 5.82776 3.40745 6.06598 3.16922C6.23614 2.99907 6.4063 2.82582 6.57852 2.65669C6.58162 2.65359 6.58471 2.6505 6.5878 2.6474C6.70021 2.535 6.86625 2.4659 7.02506 2.4659C7.17666 2.4659 7.35816 2.53294 7.46232 2.6474C7.5706 2.76497 7.65105 2.91966 7.64382 3.08466C7.6366 3.24863 7.58092 3.40331 7.46232 3.52192C7.30248 3.68177 7.14264 3.84161 6.98382 4.00042C6.7291 4.25515 6.47541 4.50883 6.22069 4.76355L6.04641 4.93784C6.10726 4.79243 6.16707 4.64598 6.22791 4.50058V6.01032V6.22173C6.22791 6.38054 6.15882 6.54658 6.04641 6.65899C5.93916 6.76624 5.76282 6.84667 5.60915 6.84049C5.44931 6.83327 5.28328 6.78067 5.17189 6.65899C5.05949 6.53936 4.98936 6.39086 4.98936 6.22276L4.98935 6.22276Z" fill="#255AA2"/>
</svg>
