<svg width="13" height="13" viewBox="0 0 13 13" fill="none" xmlns="http://www.w3.org/2000/svg">
<path d="M6.69691 0.0664063C5.50537 0.0663512 4.34056 0.419636 3.3498 1.08158C2.35903 1.74353 1.58681 2.68441 1.13079 3.78525C0.674767 4.88608 0.555422 6.09741 0.787847 7.26607C1.02027 8.43473 1.59403 9.50822 2.43656 10.3508C3.27909 11.1934 4.35256 11.7672 5.52121 11.9997C6.68986 12.2321 7.9012 12.1128 9.00205 11.6569C10.1029 11.2009 11.0438 10.4287 11.7058 9.43799C12.3678 8.44726 12.7211 7.28247 12.7211 6.09092C12.7194 4.49371 12.0841 2.96243 10.9547 1.83301C9.82537 0.703587 8.29412 0.0682596 6.69691 0.0664063ZM6.69691 10.9787C5.73018 10.9788 4.78514 10.6922 3.98131 10.1551C3.17747 9.61808 2.55095 8.85473 2.18096 7.9616C1.81096 7.06847 1.71413 6.08569 1.9027 5.13752C2.09126 4.18936 2.55676 3.31841 3.24032 2.6348C3.92389 1.9512 4.79481 1.48566 5.74297 1.29703C6.69112 1.10841 7.67391 1.20519 8.56706 1.57513C9.46021 1.94507 10.2236 2.57156 10.7607 3.37536C11.2978 4.17917 11.5845 5.12419 11.5845 6.09092C11.583 7.38676 11.0676 8.62912 10.1514 9.54545C9.23509 10.4618 7.99276 10.9772 6.69691 10.9787Z" fill="#E6BE5C"/>
<path d="M6.69695 5.52246C6.6223 5.52244 6.54839 5.53713 6.47943 5.56568C6.41046 5.59424 6.3478 5.6361 6.29502 5.68888C6.24224 5.74166 6.20038 5.80432 6.17182 5.87329C6.14327 5.94225 6.12858 6.01616 6.1286 6.09081V8.9539C6.1286 9.10463 6.18848 9.2492 6.29507 9.35578C6.40165 9.46237 6.54621 9.52225 6.69695 9.52225C6.84768 9.52225 6.99224 9.46237 7.09883 9.35578C7.20541 9.2492 7.26529 9.10463 7.26529 8.9539V6.09081C7.26531 6.01616 7.25062 5.94225 7.22207 5.87329C7.19351 5.80432 7.15165 5.74166 7.09887 5.68888C7.04609 5.6361 6.98343 5.59424 6.91447 5.56568C6.8455 5.53713 6.77159 5.52244 6.69695 5.52246Z" fill="#E6BE5C"/>
<path d="M6.69719 4.38571C7.01108 4.38571 7.26554 4.13126 7.26554 3.81737C7.26554 3.50348 7.01108 3.24902 6.69719 3.24902C6.3833 3.24902 6.12885 3.50348 6.12885 3.81737C6.12885 4.13126 6.3833 4.38571 6.69719 4.38571Z" fill="#E6BE5C"/>
</svg>
