<svg width="5" height="11" viewBox="0 0 5 11" fill="none" xmlns="http://www.w3.org/2000/svg">
<path d="M4.27834 9.64392C3.86327 9.76239 2.90984 9.95852 2.95792 9.25482L4.03417 5.16251C4.1282 4.80503 4.06785 4.42691 3.8663 4.1114C3.66482 3.7959 3.33874 3.56877 2.95972 3.48007C2.93125 3.47339 2.87456 3.46403 2.87456 3.46403C1.95724 3.29546 1.00731 3.50608 0.265748 4.04264C0.203444 4.08975 0.158139 4.15382 0.135853 4.22618L0.00449413 4.64097C-0.00664907 4.67572 0.00327394 4.7134 0.0304405 4.7391C0.0576071 4.76481 0.0975442 4.7744 0.134389 4.76396C0.584107 4.63559 1.66865 4.41354 1.42324 5.34648L0.399789 9.23805L0.39987 9.23813C0.305845 9.5956 0.366197 9.97372 0.567668 10.2892C0.76922 10.6047 1.0953 10.8318 1.47425 10.9205C1.49816 10.9261 1.52207 10.9298 1.5459 10.9337L1.53809 10.9437L1.53818 10.9438C2.4555 11.1124 3.40551 10.9017 4.14699 10.3652C4.20929 10.3181 4.2546 10.254 4.27688 10.1817L4.40824 9.76688C4.41938 9.73212 4.40946 9.69445 4.38229 9.66874C4.35513 9.64296 4.31519 9.63345 4.27835 9.64388L4.27834 9.64392Z" fill="#255AA2"/>
<path d="M3.78691 0.0335359C4.61818 0.204257 5.14531 0.978222 4.96443 1.76239C4.78346 2.54648 3.96301 3.04375 3.13183 2.87311C2.30056 2.70247 1.77343 1.92843 1.95431 1.14434C2.1352 0.360171 2.95573 -0.137098 3.78691 0.0335359Z" fill="#255AA2"/>
</svg>
