<svg width="10" height="10" viewBox="0 0 10 10" fill="none" xmlns="http://www.w3.org/2000/svg">
<path d="M6.33286 3.99999C6.24447 3.99999 6.15965 3.96487 6.09716 3.90237C6.03466 3.83987 5.99955 3.75505 5.99955 3.66666V1.99999H3.99968V8.33333C3.99975 8.40007 3.97974 8.46532 3.94231 8.5206C3.90489 8.57588 3.85169 8.61859 3.78972 8.6433L2.06313 9.33333H5.99963V6.33333C5.99963 6.21421 6.06317 6.10417 6.16629 6.04465C6.26941 5.98512 6.39648 5.98512 6.4996 6.04465C6.60272 6.10417 6.66626 6.21422 6.66626 6.33333V9.66667C6.66626 9.75506 6.63114 9.83988 6.56865 9.90238C6.50615 9.96488 6.42133 10 6.33295 10H0.333333C0.29472 9.99993 0.256329 9.99315 0.220023 9.97998H0.200008L0.156708 9.95662L0.120029 9.92329V9.92336C0.0943604 9.8962 0.0740485 9.86458 0.0599885 9.82998V9.80997C0.029038 9.76763 0.00843 9.71853 2.28882e-05 9.66667V1.66667C-5.14984e-05 1.59993 0.0199633 1.53467 0.0573854 1.47939C0.0948076 1.42411 0.148004 1.3814 0.209979 1.3567L3.5431 0.0233631C3.58238 0.0078125 3.62427 -7.43866e-05 3.66645 0C3.73297 -0.000148773 3.79792 0.0195665 3.85312 0.0566959C3.94493 0.11875 3.99991 0.22247 3.99977 0.333325V1.33333H6.33295C6.42133 1.33333 6.50615 1.36845 6.56865 1.43094C6.63114 1.49344 6.66626 1.57827 6.66626 1.66666V3.66666C6.66626 3.75505 6.63114 3.83987 6.56865 3.90237C6.50615 3.96487 6.42133 3.99999 6.33295 3.99999H6.33286Z" fill="#255AA2"/>
<path d="M9.97266 4.8733C10.0091 4.95373 10.0091 5.04614 9.97266 5.12657C9.95674 5.16749 9.933 5.20492 9.90265 5.23661L8.5694 6.56995C8.48481 6.65447 8.3616 6.68751 8.24612 6.65656C8.13058 6.6256 8.0404 6.53542 8.00945 6.41987C7.9785 6.30439 8.01154 6.18118 8.09606 6.09658L8.33273 5.86324V5.33326H4.99961C4.88049 5.33326 4.77046 5.26972 4.71094 5.16659C4.65142 5.06347 4.65142 4.93638 4.71094 4.83326C4.77046 4.73014 4.8805 4.66659 4.99961 4.66659H8.33273V4.13661L8.09606 3.90328C8.03297 3.8407 7.99748 3.75551 7.99748 3.66659C7.99748 3.57768 8.03297 3.49249 8.09606 3.42991C8.159 3.36756 8.24411 3.33273 8.33273 3.33326C8.42134 3.33274 8.50645 3.36756 8.5694 3.42991L9.90264 4.76324C9.933 4.79494 9.95673 4.83236 9.97266 4.87329L9.97266 4.8733Z" fill="#255AA2"/>
</svg>
