<svg width="12" height="10" viewBox="0 0 12 10" fill="none" xmlns="http://www.w3.org/2000/svg">
<path d="M11.799 0.558293V5.31016C11.799 5.62033 11.5509 5.86845 11.2407 5.86845H8.89581V3.66001H9.35484C9.44173 3.66001 9.51616 3.58558 9.51616 3.49869V2.36964C9.51616 2.28275 9.44173 2.20832 9.35484 2.20832L2.43176 2.20841C2.34487 2.20841 2.27045 2.28284 2.27045 2.36972V3.49878C2.27045 3.58567 2.34487 3.6601 2.43176 3.6601H2.8908V5.86844H0.558291C0.248117 5.86844 0 5.62033 0 5.31015V0.558291C0 0.248117 0.248117 0 0.558291 0H11.2283C11.5384 0 11.7989 0.248117 11.7989 0.558291L11.799 0.558293Z" fill="#255AA2"/>
<path d="M3.34985 2.94045V9.4541C3.34985 9.75189 3.59797 10 3.89578 10H6.88586V2.94047L3.34985 2.94045ZM5.27295 9.03227C5.27295 9.10669 5.2109 9.16875 5.13647 9.16875H4.6526C4.57817 9.16875 4.51612 9.10669 4.51612 9.03227V7.33254C4.51612 7.25811 4.57817 7.19605 4.6526 7.19605H5.13647C5.2109 7.19605 5.27295 7.25811 5.27295 7.33254V9.03227ZM7.24564 2.94045V10H7.89082C8.18861 10 8.43675 9.75189 8.43675 9.45408V2.94043L7.24564 2.94045Z" fill="#255AA2"/>
</svg>
